<svg xmlns="http://www.w3.org/2000/svg" width="226.66" height="104.102" viewBox="0 0 226.66 104.102">
  <g id="Meus_Contatos" data-name="Meus Contatos" transform="translate(-37 -2733)">
    <path id="Caminho_108" data-name="Caminho 108" d="M26.05,25.309q.4.957.79,1.928.388-1,.8-1.969t.888-1.858L40.4,1.193a3.081,3.081,0,0,1,.458-.666,1.412,1.412,0,0,1,.527-.361A2.326,2.326,0,0,1,42.04.028Q42.4,0,42.9,0h5.63V40.107H41.957V14.2q0-.721.042-1.581t.125-1.747L30,33.616a3.2,3.2,0,0,1-1.082,1.207,2.8,2.8,0,0,1-1.553.43H26.341a2.8,2.8,0,0,1-1.553-.43,3.2,3.2,0,0,1-1.082-1.207L11.419,10.789q.11.915.153,1.789t.042,1.623V40.107H5.04V0h5.63q.5,0,.86.028a2.33,2.33,0,0,1,.652.139,1.541,1.541,0,0,1,.541.361,2.8,2.8,0,0,1,.472.666L25.177,23.465q.472.888.874,1.844" transform="translate(35.983 2735.031)" fill="none" stroke="#d847f7" stroke-width="1"/>
    <path id="Caminho_109" data-name="Caminho 109" d="M125.333,24.24a13.821,13.821,0,0,1,4.951.86,10.855,10.855,0,0,1,3.9,2.51,11.472,11.472,0,0,1,2.552,4.049,15.293,15.293,0,0,1,.915,5.478,10,10,0,0,1-.069,1.29,2.069,2.069,0,0,1-.25.8,1.012,1.012,0,0,1-.485.416,2.071,2.071,0,0,1-.777.125H118.482q.3,4.382,2.358,6.435a7.347,7.347,0,0,0,5.436,2.052,9.4,9.4,0,0,0,2.871-.388,13.478,13.478,0,0,0,2.108-.86q.9-.472,1.581-.86a2.651,2.651,0,0,1,1.317-.388,1.485,1.485,0,0,1,.721.166,1.6,1.6,0,0,1,.527.472l2,2.5a11.428,11.428,0,0,1-2.552,2.233,14.311,14.311,0,0,1-2.954,1.442,16.144,16.144,0,0,1-3.134.763,22.445,22.445,0,0,1-3.093.222,15.21,15.21,0,0,1-5.52-.985,12.352,12.352,0,0,1-4.438-2.912,13.657,13.657,0,0,1-2.968-4.771,18.462,18.462,0,0,1-1.082-6.587,15.742,15.742,0,0,1,.943-5.478,13.157,13.157,0,0,1,2.7-4.466,12.727,12.727,0,0,1,4.3-3.009,14.169,14.169,0,0,1,5.728-1.109m.139,4.909a6.336,6.336,0,0,0-4.687,1.692,8.341,8.341,0,0,0-2.163,4.8h12.87a8.555,8.555,0,0,0-.361-2.51,5.79,5.79,0,0,0-1.109-2.066,5.26,5.26,0,0,0-1.886-1.4,6.426,6.426,0,0,0-2.663-.513" transform="translate(-21.349 2721.997)" fill="none" stroke="#d847f7" stroke-width="1"/>
    <path id="Caminho_110" data-name="Caminho 110" d="M185.528,25.2V43.284a6.077,6.077,0,0,0,1.207,4.036,4.471,4.471,0,0,0,3.62,1.428,7.236,7.236,0,0,0,3.328-.79,11.623,11.623,0,0,0,2.94-2.177V25.2h6.851V53.657h-4.188a1.683,1.683,0,0,1-1.747-1.248l-.472-2.274a19.817,19.817,0,0,1-1.831,1.623,11.059,11.059,0,0,1-2.011,1.248,11.259,11.259,0,0,1-2.3.8,11.514,11.514,0,0,1-2.649.291,10.1,10.1,0,0,1-4.119-.79,8.244,8.244,0,0,1-3.009-2.233,9.764,9.764,0,0,1-1.844-3.425,14.5,14.5,0,0,1-.624-4.368V25.2Z" transform="translate(-57.387 2721.48)" fill="none" stroke="#d847f7" stroke-width="1"/>
    <path id="Caminho_111" data-name="Caminho 111" d="M262.145,30.231a1.827,1.827,0,0,1-.582.624,1.505,1.505,0,0,1-.777.18,2.439,2.439,0,0,1-1.068-.277q-.569-.277-1.317-.624a12.125,12.125,0,0,0-1.706-.624,8.187,8.187,0,0,0-2.26-.277,5.267,5.267,0,0,0-3.19.86,2.668,2.668,0,0,0-1.165,2.247,2.143,2.143,0,0,0,.6,1.539,5.353,5.353,0,0,0,1.581,1.1,15.4,15.4,0,0,0,2.233.846q1.248.374,2.552.818t2.552,1.012a8.91,8.91,0,0,1,2.233,1.442A6.35,6.35,0,0,1,264,44.127a9.444,9.444,0,0,1-.749,3.786,8.328,8.328,0,0,1-2.191,3,10.261,10.261,0,0,1-3.564,1.969,16.588,16.588,0,0,1-7.738.444,16.946,16.946,0,0,1-2.69-.735,14.849,14.849,0,0,1-2.385-1.109,11.532,11.532,0,0,1-1.928-1.387l1.581-2.607a2.236,2.236,0,0,1,.721-.721,2.02,2.02,0,0,1,1.054-.25,2.215,2.215,0,0,1,1.207.361q.569.361,1.317.777a11.709,11.709,0,0,0,1.761.777,7.748,7.748,0,0,0,2.566.361,6.656,6.656,0,0,0,2.094-.291,4.422,4.422,0,0,0,1.442-.763,2.872,2.872,0,0,0,.832-1.1,3.285,3.285,0,0,0,.263-1.29,2.3,2.3,0,0,0-.6-1.636,5.233,5.233,0,0,0-1.581-1.109,15.32,15.32,0,0,0-2.247-.846q-1.262-.374-2.579-.818a23.675,23.675,0,0,1-2.579-1.04,8.775,8.775,0,0,1-2.247-1.512,6.841,6.841,0,0,1-1.581-2.247,7.838,7.838,0,0,1-.6-3.217,8.2,8.2,0,0,1,.693-3.328,7.806,7.806,0,0,1,2.039-2.76,10.12,10.12,0,0,1,3.356-1.886,13.978,13.978,0,0,1,4.646-.707,14.224,14.224,0,0,1,5.353.971,12.1,12.1,0,0,1,4.022,2.552Z" transform="translate(-91.845 2721.997)" fill="none" stroke="#d847f7" stroke-width="1"/>
    <path id="Caminho_112" data-name="Caminho 112" d="M29.9,162.132a1.4,1.4,0,0,1,1.054.471l2.94,3.19a16.143,16.143,0,0,1-6,4.632,20.693,20.693,0,0,1-8.557,1.609,20.219,20.219,0,0,1-8.03-1.525,17.694,17.694,0,0,1-6.088-4.244,18.574,18.574,0,0,1-3.869-6.49A24.36,24.36,0,0,1,0,151.537a22.176,22.176,0,0,1,1.5-8.279,18.7,18.7,0,0,1,10.72-10.706,22.362,22.362,0,0,1,8.362-1.512,19.753,19.753,0,0,1,7.808,1.428,18.262,18.262,0,0,1,5.728,3.786l-2.5,3.467a2.273,2.273,0,0,1-.569.582,1.613,1.613,0,0,1-.957.25,2.181,2.181,0,0,1-1.3-.5,16.194,16.194,0,0,0-1.692-1.082,13.805,13.805,0,0,0-2.593-1.082,13.345,13.345,0,0,0-3.98-.5,13.431,13.431,0,0,0-5.2.985,11.559,11.559,0,0,0-4.077,2.815,12.953,12.953,0,0,0-2.663,4.452,17.1,17.1,0,0,0-.957,5.894,17.569,17.569,0,0,0,.957,6.019,13.233,13.233,0,0,0,2.593,4.438,11.068,11.068,0,0,0,3.855,2.76,11.915,11.915,0,0,0,4.771.957,20.786,20.786,0,0,0,2.76-.166,11.713,11.713,0,0,0,2.274-.527,10.082,10.082,0,0,0,1.969-.929,12.273,12.273,0,0,0,1.844-1.4,2.63,2.63,0,0,1,.582-.4,1.467,1.467,0,0,1,.666-.153" transform="translate(38.693 2664.567)" fill="none" stroke="#d847f7" stroke-width="1"/>
    <path id="Caminho_113" data-name="Caminho 113" d="M94.516,156.24a15.608,15.608,0,0,1,5.783,1.026,12.469,12.469,0,0,1,4.424,2.912,12.9,12.9,0,0,1,2.829,4.6,19.059,19.059,0,0,1,0,12.176,13.172,13.172,0,0,1-2.829,4.632,12.285,12.285,0,0,1-4.424,2.94,16.846,16.846,0,0,1-11.58,0,12.391,12.391,0,0,1-4.452-2.94,13.216,13.216,0,0,1-2.857-4.632,18.812,18.812,0,0,1,0-12.176,12.943,12.943,0,0,1,2.857-4.6,12.578,12.578,0,0,1,4.452-2.912,15.71,15.71,0,0,1,5.8-1.026m0,24.047a6.025,6.025,0,0,0,5.256-2.385q1.706-2.385,1.706-6.99T99.772,163.9a6,6,0,0,0-5.256-2.413,6.081,6.081,0,0,0-5.325,2.427q-1.72,2.428-1.72,7t1.72,6.976a6.107,6.107,0,0,0,5.325,2.4" transform="translate(-4.54 2651.016)" fill="none" stroke="#d847f7" stroke-width="1"/>
    <path id="Caminho_114" data-name="Caminho 114" d="M152.877,185.141V156.684h4.188a1.683,1.683,0,0,1,1.747,1.248l.472,2.247a15.645,15.645,0,0,1,1.817-1.609,12.684,12.684,0,0,1,2.025-1.248,10.323,10.323,0,0,1,2.288-.8,12.04,12.04,0,0,1,2.663-.277,10.2,10.2,0,0,1,4.133.79,8.166,8.166,0,0,1,3.009,2.219,9.763,9.763,0,0,1,1.831,3.412,14.5,14.5,0,0,1,.624,4.368v18.112h-6.851V167.029a6.079,6.079,0,0,0-1.207-4.036,4.472,4.472,0,0,0-3.62-1.428,7.133,7.133,0,0,0-3.328.8,11.92,11.92,0,0,0-2.94,2.191v20.58Z" transform="translate(-43.514 2651.016)" fill="none" stroke="#d847f7" stroke-width="1"/>
    <path id="Caminho_115" data-name="Caminho 115" d="M227.444,175.97a7.483,7.483,0,0,1-5.686-2.094,8.038,8.038,0,0,1-2-5.783V152.2h-2.885a1.314,1.314,0,0,1-1.359-1.442V148.04l4.576-.749,1.442-7.766a1.371,1.371,0,0,1,.513-.86,1.626,1.626,0,0,1,1.012-.305h3.55v8.959H234.1V152.2h-7.489v15.421a3.023,3.023,0,0,0,.666,2.08,2.257,2.257,0,0,0,1.775.749,3.228,3.228,0,0,0,1.068-.153,5.807,5.807,0,0,0,.749-.319q.318-.166.569-.319a.955.955,0,0,1,.5-.153.787.787,0,0,1,.5.153,2.343,2.343,0,0,1,.416.458l2.052,3.328a10.376,10.376,0,0,1-3.439,1.886,12.8,12.8,0,0,1-4.022.638" transform="translate(-77.197 2660.631)" fill="none" stroke="#d847f7" stroke-width="1"/>
    <path id="Caminho_116" data-name="Caminho 116" d="M288.191,185.044h-3.079a3.316,3.316,0,0,1-1.525-.291,1.871,1.871,0,0,1-.832-1.179l-.61-2.025a23.341,23.341,0,0,1-2.122,1.706,12.851,12.851,0,0,1-2.15,1.234,10.963,10.963,0,0,1-2.358.749,14.185,14.185,0,0,1-2.774.25,10.893,10.893,0,0,1-3.328-.487,7.164,7.164,0,0,1-2.621-1.461,6.634,6.634,0,0,1-1.706-2.421,8.615,8.615,0,0,1-.61-3.368,6.656,6.656,0,0,1,.846-3.187,7.979,7.979,0,0,1,2.815-2.838,17.945,17.945,0,0,1,5.242-2.1,33.481,33.481,0,0,1,8.127-.835v-1.677a6.36,6.36,0,0,0-1.207-4.262,4.405,4.405,0,0,0-3.509-1.384,8.5,8.5,0,0,0-2.774.388,10.781,10.781,0,0,0-1.928.874q-.818.485-1.512.874a3.064,3.064,0,0,1-1.526.388,1.982,1.982,0,0,1-1.193-.361,2.829,2.829,0,0,1-.8-.888l-1.248-2.191a16.922,16.922,0,0,1,11.843-4.493,11.452,11.452,0,0,1,4.452.818,9.469,9.469,0,0,1,3.314,2.274,9.744,9.744,0,0,1,2.066,3.481,13.378,13.378,0,0,1,.707,4.438Zm-13.313-4.271a9.251,9.251,0,0,0,1.942-.191,7.449,7.449,0,0,0,1.678-.573,8.941,8.941,0,0,0,1.525-.942,13.792,13.792,0,0,0,1.484-1.324v-4.763a27.805,27.805,0,0,0-5.006.377,13.232,13.232,0,0,0-3.231.964,4.158,4.158,0,0,0-1.733,1.369,3.04,3.04,0,0,0-.513,1.7,3.006,3.006,0,0,0,1.068,2.6,4.6,4.6,0,0,0,2.788.782" transform="translate(-103.524 2651.113)" fill="none" stroke="#d847f7" stroke-width="1"/>
    <path id="Caminho_117" data-name="Caminho 117" d="M26.05,25.309q.4.957.79,1.928.388-1,.8-1.969t.888-1.858L40.4,1.193a3.081,3.081,0,0,1,.458-.666,1.412,1.412,0,0,1,.527-.361A2.326,2.326,0,0,1,42.04.028Q42.4,0,42.9,0h5.63V40.107H41.957V14.2q0-.721.042-1.581t.125-1.747L30,33.616a3.2,3.2,0,0,1-1.082,1.207,2.8,2.8,0,0,1-1.553.43H26.341a2.8,2.8,0,0,1-1.553-.43,3.2,3.2,0,0,1-1.082-1.207L11.419,10.789q.11.915.153,1.789t.042,1.623V40.107H5.04V0h5.63q.5,0,.86.028a2.33,2.33,0,0,1,.652.139,1.541,1.541,0,0,1,.541.361,2.8,2.8,0,0,1,.472.666L25.177,23.465q.472.888.874,1.844" transform="translate(34.29 2733)" fill="#fff"/>
    <path id="Caminho_118" data-name="Caminho 118" d="M125.333,24.24a13.821,13.821,0,0,1,4.951.86,10.855,10.855,0,0,1,3.9,2.51,11.472,11.472,0,0,1,2.552,4.049,15.293,15.293,0,0,1,.915,5.478,10,10,0,0,1-.069,1.29,2.069,2.069,0,0,1-.25.8,1.012,1.012,0,0,1-.485.416,2.071,2.071,0,0,1-.777.125H118.482q.3,4.382,2.358,6.435a7.347,7.347,0,0,0,5.436,2.052,9.4,9.4,0,0,0,2.871-.388,13.478,13.478,0,0,0,2.108-.86q.9-.472,1.581-.86a2.651,2.651,0,0,1,1.317-.388,1.485,1.485,0,0,1,.721.166,1.6,1.6,0,0,1,.527.472l2,2.5a11.428,11.428,0,0,1-2.552,2.233,14.311,14.311,0,0,1-2.954,1.442,16.144,16.144,0,0,1-3.134.763,22.445,22.445,0,0,1-3.093.222,15.21,15.21,0,0,1-5.52-.985,12.352,12.352,0,0,1-4.438-2.912,13.657,13.657,0,0,1-2.968-4.771,18.462,18.462,0,0,1-1.082-6.587,15.742,15.742,0,0,1,.943-5.478,13.157,13.157,0,0,1,2.7-4.466,12.727,12.727,0,0,1,4.3-3.009,14.169,14.169,0,0,1,5.728-1.109m.139,4.909a6.336,6.336,0,0,0-4.687,1.692,8.341,8.341,0,0,0-2.163,4.8h12.87a8.555,8.555,0,0,0-.361-2.51,5.79,5.79,0,0,0-1.109-2.066,5.26,5.26,0,0,0-1.886-1.4,6.426,6.426,0,0,0-2.663-.513" transform="translate(-23.042 2719.965)" fill="#fff"/>
    <path id="Caminho_119" data-name="Caminho 119" d="M185.528,25.2V43.284a6.077,6.077,0,0,0,1.207,4.036,4.471,4.471,0,0,0,3.62,1.428,7.236,7.236,0,0,0,3.328-.79,11.623,11.623,0,0,0,2.94-2.177V25.2h6.851V53.657h-4.188a1.683,1.683,0,0,1-1.747-1.248l-.472-2.274a19.817,19.817,0,0,1-1.831,1.623,11.059,11.059,0,0,1-2.011,1.248,11.259,11.259,0,0,1-2.3.8,11.514,11.514,0,0,1-2.649.291,10.1,10.1,0,0,1-4.119-.79,8.244,8.244,0,0,1-3.009-2.233,9.764,9.764,0,0,1-1.844-3.425,14.5,14.5,0,0,1-.624-4.368V25.2Z" transform="translate(-59.08 2719.449)" fill="#fff"/>
    <path id="Caminho_120" data-name="Caminho 120" d="M262.145,30.231a1.827,1.827,0,0,1-.582.624,1.505,1.505,0,0,1-.777.18,2.439,2.439,0,0,1-1.068-.277q-.569-.277-1.317-.624a12.125,12.125,0,0,0-1.706-.624,8.187,8.187,0,0,0-2.26-.277,5.267,5.267,0,0,0-3.19.86,2.668,2.668,0,0,0-1.165,2.247,2.143,2.143,0,0,0,.6,1.539,5.353,5.353,0,0,0,1.581,1.1,15.4,15.4,0,0,0,2.233.846q1.248.374,2.552.818t2.552,1.012a8.91,8.91,0,0,1,2.233,1.442A6.35,6.35,0,0,1,264,44.127a9.444,9.444,0,0,1-.749,3.786,8.328,8.328,0,0,1-2.191,3,10.261,10.261,0,0,1-3.564,1.969,16.588,16.588,0,0,1-7.738.444,16.946,16.946,0,0,1-2.69-.735,14.849,14.849,0,0,1-2.385-1.109,11.532,11.532,0,0,1-1.928-1.387l1.581-2.607a2.236,2.236,0,0,1,.721-.721,2.02,2.02,0,0,1,1.054-.25,2.215,2.215,0,0,1,1.207.361q.569.361,1.317.777a11.709,11.709,0,0,0,1.761.777,7.748,7.748,0,0,0,2.566.361,6.656,6.656,0,0,0,2.094-.291,4.422,4.422,0,0,0,1.442-.763,2.872,2.872,0,0,0,.832-1.1,3.285,3.285,0,0,0,.263-1.29,2.3,2.3,0,0,0-.6-1.636,5.233,5.233,0,0,0-1.581-1.109,15.32,15.32,0,0,0-2.247-.846q-1.262-.374-2.579-.818a23.675,23.675,0,0,1-2.579-1.04,8.775,8.775,0,0,1-2.247-1.512,6.841,6.841,0,0,1-1.581-2.247,7.838,7.838,0,0,1-.6-3.217,8.2,8.2,0,0,1,.693-3.328,7.806,7.806,0,0,1,2.039-2.76,10.12,10.12,0,0,1,3.356-1.886,13.978,13.978,0,0,1,4.646-.707,14.224,14.224,0,0,1,5.353.971,12.1,12.1,0,0,1,4.022,2.552Z" transform="translate(-93.538 2719.965)" fill="#fff"/>
    <path id="Caminho_121" data-name="Caminho 121" d="M29.9,162.132a1.4,1.4,0,0,1,1.054.471l2.94,3.19a16.143,16.143,0,0,1-6,4.632,20.693,20.693,0,0,1-8.557,1.609,20.219,20.219,0,0,1-8.03-1.525,17.694,17.694,0,0,1-6.088-4.244,18.574,18.574,0,0,1-3.869-6.49A24.36,24.36,0,0,1,0,151.537a22.176,22.176,0,0,1,1.5-8.279,18.7,18.7,0,0,1,10.72-10.706,22.362,22.362,0,0,1,8.362-1.512,19.753,19.753,0,0,1,7.808,1.428,18.262,18.262,0,0,1,5.728,3.786l-2.5,3.467a2.273,2.273,0,0,1-.569.582,1.613,1.613,0,0,1-.957.25,2.181,2.181,0,0,1-1.3-.5,16.194,16.194,0,0,0-1.692-1.082,13.805,13.805,0,0,0-2.593-1.082,13.345,13.345,0,0,0-3.98-.5,13.431,13.431,0,0,0-5.2.985,11.559,11.559,0,0,0-4.077,2.815,12.953,12.953,0,0,0-2.663,4.452,17.1,17.1,0,0,0-.957,5.894,17.569,17.569,0,0,0,.957,6.019,13.233,13.233,0,0,0,2.593,4.438,11.068,11.068,0,0,0,3.855,2.76,11.915,11.915,0,0,0,4.771.957,20.786,20.786,0,0,0,2.76-.166,11.713,11.713,0,0,0,2.274-.527,10.082,10.082,0,0,0,1.969-.929,12.273,12.273,0,0,0,1.844-1.4,2.63,2.63,0,0,1,.582-.4,1.467,1.467,0,0,1,.666-.153" transform="translate(37 2662.536)" fill="#fff"/>
    <path id="Caminho_122" data-name="Caminho 122" d="M94.516,156.24a15.608,15.608,0,0,1,5.783,1.026,12.469,12.469,0,0,1,4.424,2.912,12.9,12.9,0,0,1,2.829,4.6,19.059,19.059,0,0,1,0,12.176,13.172,13.172,0,0,1-2.829,4.632,12.285,12.285,0,0,1-4.424,2.94,16.846,16.846,0,0,1-11.58,0,12.391,12.391,0,0,1-4.452-2.94,13.216,13.216,0,0,1-2.857-4.632,18.812,18.812,0,0,1,0-12.176,12.943,12.943,0,0,1,2.857-4.6,12.578,12.578,0,0,1,4.452-2.912,15.71,15.71,0,0,1,5.8-1.026m0,24.047a6.025,6.025,0,0,0,5.256-2.385q1.706-2.385,1.706-6.99T99.772,163.9a6,6,0,0,0-5.256-2.413,6.081,6.081,0,0,0-5.325,2.427q-1.72,2.428-1.72,7t1.72,6.976a6.107,6.107,0,0,0,5.325,2.4" transform="translate(-6.232 2648.985)" fill="#fff"/>
    <path id="Caminho_123" data-name="Caminho 123" d="M152.877,185.141V156.684h4.188a1.683,1.683,0,0,1,1.747,1.248l.472,2.247a15.645,15.645,0,0,1,1.817-1.609,12.684,12.684,0,0,1,2.025-1.248,10.323,10.323,0,0,1,2.288-.8,12.04,12.04,0,0,1,2.663-.277,10.2,10.2,0,0,1,4.133.79,8.166,8.166,0,0,1,3.009,2.219,9.763,9.763,0,0,1,1.831,3.412,14.5,14.5,0,0,1,.624,4.368v18.112h-6.851V167.029a6.079,6.079,0,0,0-1.207-4.036,4.472,4.472,0,0,0-3.62-1.428,7.133,7.133,0,0,0-3.328.8,11.92,11.92,0,0,0-2.94,2.191v20.58Z" transform="translate(-45.206 2648.985)" fill="#fff"/>
    <path id="Caminho_124" data-name="Caminho 124" d="M227.444,175.97a7.483,7.483,0,0,1-5.686-2.094,8.038,8.038,0,0,1-2-5.783V152.2h-2.885a1.314,1.314,0,0,1-1.359-1.442V148.04l4.576-.749,1.442-7.766a1.371,1.371,0,0,1,.513-.86,1.626,1.626,0,0,1,1.012-.305h3.55v8.959H234.1V152.2h-7.489v15.421a3.023,3.023,0,0,0,.666,2.08,2.257,2.257,0,0,0,1.775.749,3.228,3.228,0,0,0,1.068-.153,5.807,5.807,0,0,0,.749-.319q.318-.166.569-.319a.955.955,0,0,1,.5-.153.787.787,0,0,1,.5.153,2.343,2.343,0,0,1,.416.458l2.052,3.328a10.376,10.376,0,0,1-3.439,1.886,12.8,12.8,0,0,1-4.022.638" transform="translate(-78.89 2658.6)" fill="#fff"/>
    <path id="Caminho_125" data-name="Caminho 125" d="M288.191,185.044h-3.079a3.316,3.316,0,0,1-1.525-.291,1.871,1.871,0,0,1-.832-1.179l-.61-2.025a23.341,23.341,0,0,1-2.122,1.706,12.851,12.851,0,0,1-2.15,1.234,10.963,10.963,0,0,1-2.358.749,14.185,14.185,0,0,1-2.774.25,10.893,10.893,0,0,1-3.328-.487,7.164,7.164,0,0,1-2.621-1.461,6.634,6.634,0,0,1-1.706-2.421,8.615,8.615,0,0,1-.61-3.368,6.656,6.656,0,0,1,.846-3.187,7.979,7.979,0,0,1,2.815-2.838,17.945,17.945,0,0,1,5.242-2.1,33.481,33.481,0,0,1,8.127-.835v-1.677a6.36,6.36,0,0,0-1.207-4.262,4.405,4.405,0,0,0-3.509-1.384,8.5,8.5,0,0,0-2.774.388,10.781,10.781,0,0,0-1.928.874q-.818.485-1.512.874a3.064,3.064,0,0,1-1.526.388,1.982,1.982,0,0,1-1.193-.361,2.829,2.829,0,0,1-.8-.888l-1.248-2.191a16.922,16.922,0,0,1,11.843-4.493,11.452,11.452,0,0,1,4.452.818,9.469,9.469,0,0,1,3.314,2.274,9.744,9.744,0,0,1,2.066,3.481,13.378,13.378,0,0,1,.707,4.438Zm-13.313-4.271a9.251,9.251,0,0,0,1.942-.191,7.449,7.449,0,0,0,1.678-.573,8.941,8.941,0,0,0,1.525-.942,13.792,13.792,0,0,0,1.484-1.324v-4.763a27.805,27.805,0,0,0-5.006.377,13.232,13.232,0,0,0-3.231.964,4.158,4.158,0,0,0-1.733,1.369,3.04,3.04,0,0,0-.513,1.7,3.006,3.006,0,0,0,1.068,2.6,4.6,4.6,0,0,0,2.788.782" transform="translate(-105.217 2649.082)" fill="#fff"/>
    <path id="Caminho_126" data-name="Caminho 126" d="M336.7,175.97a7.483,7.483,0,0,1-5.686-2.094,8.038,8.038,0,0,1-2-5.783V152.2h-2.885a1.314,1.314,0,0,1-1.359-1.442V148.04l4.576-.749,1.442-7.766a1.371,1.371,0,0,1,.513-.86,1.626,1.626,0,0,1,1.012-.305h3.55v8.959h7.489V152.2h-7.489v15.421a3.023,3.023,0,0,0,.666,2.08,2.257,2.257,0,0,0,1.775.749,3.227,3.227,0,0,0,1.068-.153,5.808,5.808,0,0,0,.749-.319q.318-.166.569-.319a.955.955,0,0,1,.5-.153.787.787,0,0,1,.5.153,2.342,2.342,0,0,1,.416.458l2.052,3.328a10.376,10.376,0,0,1-3.439,1.886,12.8,12.8,0,0,1-4.022.638" transform="translate(-135.949 2660.631)" fill="none" stroke="#d847f7" stroke-width="1"/>
    <path id="Caminho_127" data-name="Caminho 127" d="M386.654,156.24a15.608,15.608,0,0,1,5.783,1.026,12.469,12.469,0,0,1,4.424,2.912,12.9,12.9,0,0,1,2.829,4.6,19.059,19.059,0,0,1,0,12.176,13.172,13.172,0,0,1-2.829,4.632,12.285,12.285,0,0,1-4.424,2.94,16.846,16.846,0,0,1-11.58,0,12.391,12.391,0,0,1-4.452-2.94,13.216,13.216,0,0,1-2.857-4.632,18.812,18.812,0,0,1,0-12.176,12.943,12.943,0,0,1,2.857-4.6,12.578,12.578,0,0,1,4.452-2.912,15.71,15.71,0,0,1,5.8-1.026m0,24.047a6.025,6.025,0,0,0,5.256-2.385q1.706-2.385,1.706-6.99T391.91,163.9a6,6,0,0,0-5.256-2.413,6.08,6.08,0,0,0-5.325,2.427q-1.72,2.428-1.72,7t1.72,6.976a6.107,6.107,0,0,0,5.325,2.4" transform="translate(-161.631 2651.016)" fill="none" stroke="#d847f7" stroke-width="1"/>
    <path id="Caminho_128" data-name="Caminho 128" d="M459,162.231a1.828,1.828,0,0,1-.582.624,1.505,1.505,0,0,1-.777.18,2.439,2.439,0,0,1-1.068-.277q-.569-.277-1.318-.624a12.12,12.12,0,0,0-1.706-.624,8.188,8.188,0,0,0-2.261-.277,5.267,5.267,0,0,0-3.19.86,2.668,2.668,0,0,0-1.165,2.247,2.143,2.143,0,0,0,.6,1.539,5.354,5.354,0,0,0,1.581,1.1,15.4,15.4,0,0,0,2.233.846q1.248.374,2.552.818t2.552,1.012a8.909,8.909,0,0,1,2.233,1.442,6.35,6.35,0,0,1,2.177,5.034,9.444,9.444,0,0,1-.749,3.786,8.328,8.328,0,0,1-2.191,3,10.259,10.259,0,0,1-3.564,1.969,16.587,16.587,0,0,1-7.738.444,16.939,16.939,0,0,1-2.69-.735,14.844,14.844,0,0,1-2.385-1.109,11.528,11.528,0,0,1-1.928-1.387l1.581-2.607a2.236,2.236,0,0,1,.721-.721,2.02,2.02,0,0,1,1.054-.25,2.215,2.215,0,0,1,1.207.361q.569.361,1.317.777a11.716,11.716,0,0,0,1.761.777,7.748,7.748,0,0,0,2.566.361,6.656,6.656,0,0,0,2.094-.291,4.423,4.423,0,0,0,1.442-.763,2.873,2.873,0,0,0,.832-1.1,3.285,3.285,0,0,0,.263-1.29,2.3,2.3,0,0,0-.6-1.636,5.234,5.234,0,0,0-1.581-1.109,15.322,15.322,0,0,0-2.247-.846q-1.262-.374-2.579-.818a23.673,23.673,0,0,1-2.579-1.04,8.776,8.776,0,0,1-2.247-1.512,6.842,6.842,0,0,1-1.581-2.247,7.839,7.839,0,0,1-.6-3.217,8.2,8.2,0,0,1,.693-3.328,7.8,7.8,0,0,1,2.039-2.76,10.119,10.119,0,0,1,3.356-1.886,13.978,13.978,0,0,1,4.646-.707,14.224,14.224,0,0,1,5.353.971,12.1,12.1,0,0,1,4.022,2.552Z" transform="translate(-197.701 2651.016)" fill="none" stroke="#d847f7" stroke-width="1"/>
    <path id="Caminho_129" data-name="Caminho 129" d="M336.7,175.97a7.483,7.483,0,0,1-5.686-2.094,8.038,8.038,0,0,1-2-5.783V152.2h-2.885a1.314,1.314,0,0,1-1.359-1.442V148.04l4.576-.749,1.442-7.766a1.371,1.371,0,0,1,.513-.86,1.626,1.626,0,0,1,1.012-.305h3.55v8.959h7.489V152.2h-7.489v15.421a3.023,3.023,0,0,0,.666,2.08,2.257,2.257,0,0,0,1.775.749,3.227,3.227,0,0,0,1.068-.153,5.808,5.808,0,0,0,.749-.319q.318-.166.569-.319a.955.955,0,0,1,.5-.153.787.787,0,0,1,.5.153,2.342,2.342,0,0,1,.416.458l2.052,3.328a10.376,10.376,0,0,1-3.439,1.886,12.8,12.8,0,0,1-4.022.638" transform="translate(-137.642 2658.6)" fill="#fff"/>
    <path id="Caminho_130" data-name="Caminho 130" d="M386.654,156.24a15.608,15.608,0,0,1,5.783,1.026,12.469,12.469,0,0,1,4.424,2.912,12.9,12.9,0,0,1,2.829,4.6,19.059,19.059,0,0,1,0,12.176,13.172,13.172,0,0,1-2.829,4.632,12.285,12.285,0,0,1-4.424,2.94,16.846,16.846,0,0,1-11.58,0,12.391,12.391,0,0,1-4.452-2.94,13.216,13.216,0,0,1-2.857-4.632,18.812,18.812,0,0,1,0-12.176,12.943,12.943,0,0,1,2.857-4.6,12.578,12.578,0,0,1,4.452-2.912,15.71,15.71,0,0,1,5.8-1.026m0,24.047a6.025,6.025,0,0,0,5.256-2.385q1.706-2.385,1.706-6.99T391.91,163.9a6,6,0,0,0-5.256-2.413,6.08,6.08,0,0,0-5.325,2.427q-1.72,2.428-1.72,7t1.72,6.976a6.107,6.107,0,0,0,5.325,2.4" transform="translate(-163.324 2648.985)" fill="#fff"/>
    <path id="Caminho_131" data-name="Caminho 131" d="M459,162.231a1.828,1.828,0,0,1-.582.624,1.505,1.505,0,0,1-.777.18,2.439,2.439,0,0,1-1.068-.277q-.569-.277-1.318-.624a12.12,12.12,0,0,0-1.706-.624,8.188,8.188,0,0,0-2.261-.277,5.267,5.267,0,0,0-3.19.86,2.668,2.668,0,0,0-1.165,2.247,2.143,2.143,0,0,0,.6,1.539,5.354,5.354,0,0,0,1.581,1.1,15.4,15.4,0,0,0,2.233.846q1.248.374,2.552.818t2.552,1.012a8.909,8.909,0,0,1,2.233,1.442,6.35,6.35,0,0,1,2.177,5.034,9.444,9.444,0,0,1-.749,3.786,8.328,8.328,0,0,1-2.191,3,10.259,10.259,0,0,1-3.564,1.969,16.587,16.587,0,0,1-7.738.444,16.939,16.939,0,0,1-2.69-.735,14.844,14.844,0,0,1-2.385-1.109,11.528,11.528,0,0,1-1.928-1.387l1.581-2.607a2.236,2.236,0,0,1,.721-.721,2.02,2.02,0,0,1,1.054-.25,2.215,2.215,0,0,1,1.207.361q.569.361,1.317.777a11.716,11.716,0,0,0,1.761.777,7.748,7.748,0,0,0,2.566.361,6.656,6.656,0,0,0,2.094-.291,4.423,4.423,0,0,0,1.442-.763,2.873,2.873,0,0,0,.832-1.1,3.285,3.285,0,0,0,.263-1.29,2.3,2.3,0,0,0-.6-1.636,5.234,5.234,0,0,0-1.581-1.109,15.322,15.322,0,0,0-2.247-.846q-1.262-.374-2.579-.818a23.673,23.673,0,0,1-2.579-1.04,8.776,8.776,0,0,1-2.247-1.512,6.842,6.842,0,0,1-1.581-2.247,7.839,7.839,0,0,1-.6-3.217,8.2,8.2,0,0,1,.693-3.328,7.8,7.8,0,0,1,2.039-2.76,10.119,10.119,0,0,1,3.356-1.886,13.978,13.978,0,0,1,4.646-.707,14.224,14.224,0,0,1,5.353.971,12.1,12.1,0,0,1,4.022,2.552Z" transform="translate(-199.394 2648.985)" fill="#fff"/>
  </g>
</svg>
