<svg xmlns="http://www.w3.org/2000/svg" xmlns:xlink="http://www.w3.org/1999/xlink" width="455" height="328.916" viewBox="0 0 455 328.916">
  <defs>
    <clipPath id="clip-path">
      <rect id="Ret창ngulo_19" data-name="Ret창ngulo 19" width="445" height="319.831" fill="none" stroke="#d847f7" stroke-width="2"/>
    </clipPath>
    <clipPath id="clip-path-2">
      <rect id="Ret창ngulo_19-2" data-name="Ret창ngulo 19" width="445" height="319.831" fill="#fff"/>
    </clipPath>
  </defs>
  <g id="Sobre_mim" data-name="Sobre mim" transform="translate(-281 -617)">
    <g id="Grupo_6" data-name="Grupo 6" transform="translate(291 626.084)" opacity="0.4">
      <g id="Grupo_6-2" data-name="Grupo 6" clip-path="url(#clip-path)">
        <path id="Caminho_78" data-name="Caminho 78" d="M77.228,27.262a6.42,6.42,0,0,1-2.207,2.683,5.545,5.545,0,0,1-2.986.779,7.579,7.579,0,0,1-3.9-1.341q-2.164-1.341-5.107-2.987a41.851,41.851,0,0,0-6.88-2.986,28.951,28.951,0,0,0-9.3-1.342,27.343,27.343,0,0,0-8.439,1.169,17.867,17.867,0,0,0-6.059,3.246,12.97,12.97,0,0,0-3.678,4.977,16.328,16.328,0,0,0-1.212,6.361,11.056,11.056,0,0,0,2.467,7.357,20.564,20.564,0,0,0,6.535,5.02,60.547,60.547,0,0,0,9.261,3.722q5.193,1.646,10.6,3.506a102.223,102.223,0,0,1,10.6,4.328,36.741,36.741,0,0,1,9.261,6.232A28.251,28.251,0,0,1,82.724,77.2a32.008,32.008,0,0,1,2.467,13.243,43.155,43.155,0,0,1-2.9,15.883,36.651,36.651,0,0,1-8.482,12.9,39.927,39.927,0,0,1-13.633,8.656,50.2,50.2,0,0,1-18.435,3.159,59.434,59.434,0,0,1-11.772-1.169,61.88,61.88,0,0,1-11.122-3.332,57.913,57.913,0,0,1-9.954-5.193,48.893,48.893,0,0,1-8.266-6.752l6.751-11.165A8.607,8.607,0,0,1,9.673,101.4a5.594,5.594,0,0,1,2.986-.823,8.268,8.268,0,0,1,4.674,1.774q2.509,1.774,5.929,3.938a45.366,45.366,0,0,0,8.049,3.938A31.117,31.117,0,0,0,42.434,112q9.952,0,15.406-4.716t5.453-13.546a12.581,12.581,0,0,0-2.467-8.05,19.938,19.938,0,0,0-6.535-5.236,48.879,48.879,0,0,0-9.261-3.592q-5.193-1.471-10.559-3.2A90.914,90.914,0,0,1,23.911,69.5a34.167,34.167,0,0,1-9.261-6.318,28.741,28.741,0,0,1-6.535-9.738,37.1,37.1,0,0,1-2.467-14.41A34.443,34.443,0,0,1,16.337,14.192,39.342,39.342,0,0,1,29.19,6.143a46.8,46.8,0,0,1,17.4-3.03A58.4,58.4,0,0,1,67.015,6.576a46.123,46.123,0,0,1,15.926,9.693Z" transform="translate(-0.129 -0.638)" fill="none" stroke="#d847f7" stroke-width="2"/>
        <path id="Caminho_79" data-name="Caminho 79" d="M164.231,48.841a48.684,48.684,0,0,1,18.046,3.2,38.921,38.921,0,0,1,13.8,9.088A40.239,40.239,0,0,1,204.911,75.5a54.658,54.658,0,0,1,3.116,18.955,54.912,54.912,0,0,1-3.116,19.041,41.1,41.1,0,0,1-8.829,14.455,38.339,38.339,0,0,1-13.8,9.175,52.575,52.575,0,0,1-36.136,0,38.676,38.676,0,0,1-13.893-9.175,41.267,41.267,0,0,1-8.915-14.455,54.2,54.2,0,0,1-3.159-19.041A53.95,53.95,0,0,1,123.334,75.5a40.4,40.4,0,0,1,8.915-14.368,39.267,39.267,0,0,1,13.893-9.088A49.007,49.007,0,0,1,164.231,48.841Zm0,75.042q11.078,0,16.4-7.444t5.322-21.811q0-14.368-5.322-21.9t-16.4-7.531q-11.253,0-16.618,7.574t-5.367,21.855q0,14.281,5.367,21.768T164.231,123.883Z" transform="translate(-24.64 -10.014)" fill="none" stroke="#d847f7" stroke-width="2"/>
        <path id="Caminho_80" data-name="Caminho 80" d="M252.025,129.119V.5H273.4V51.22a42.122,42.122,0,0,1,11.944-8.958,34.436,34.436,0,0,1,15.58-3.332A28.8,28.8,0,0,1,324.6,50.615a41.718,41.718,0,0,1,6.751,14.108,70.982,70.982,0,0,1,2.381,19.3,60.868,60.868,0,0,1-2.684,18.436,45.137,45.137,0,0,1-7.66,14.714,35.393,35.393,0,0,1-12.031,9.738,35.017,35.017,0,0,1-15.8,3.5,31.514,31.514,0,0,1-7.443-.822,25.548,25.548,0,0,1-11.3-5.886,43.842,43.842,0,0,1-4.543-4.717l-.952,5.973a5.369,5.369,0,0,1-1.774,3.2,5.525,5.525,0,0,1-3.419.952Zm41.546-73.571a21.835,21.835,0,0,0-11.382,2.813,32.9,32.9,0,0,0-8.784,7.919V106.1a20.339,20.339,0,0,0,7.919,6.275,24.062,24.062,0,0,0,9.3,1.774,20.421,20.421,0,0,0,8.742-1.818,17.116,17.116,0,0,0,6.621-5.539,27.393,27.393,0,0,0,4.2-9.391,53.646,53.646,0,0,0,1.471-13.372,59.439,59.439,0,0,0-1.254-13.2,25.532,25.532,0,0,0-3.592-8.785,14.2,14.2,0,0,0-5.67-4.934A17.678,17.678,0,0,0,293.571,55.548Z" transform="translate(-51.674 -0.103)" fill="none" stroke="#d847f7" stroke-width="2"/>
        <path id="Caminho_81" data-name="Caminho 81" d="M375.816,138.964V50.16h12.551q3.288,0,4.586,1.212a6.98,6.98,0,0,1,1.731,4.155l1.3,10.732a42.174,42.174,0,0,1,11.166-12.983,23.493,23.493,0,0,1,14.368-4.761,18.578,18.578,0,0,1,10.905,3.03l-2.77,16.012a3.307,3.307,0,0,1-1.126,2.207,3.805,3.805,0,0,1-2.337.649,14.539,14.539,0,0,1-3.548-.606,23.8,23.8,0,0,0-5.972-.606,18.133,18.133,0,0,0-11.426,3.678A28.337,28.337,0,0,0,397.2,83.656v55.307Z" transform="translate(-77.056 -9.947)" fill="none" stroke="#d847f7" stroke-width="2"/>
        <path id="Caminho_82" data-name="Caminho 82" d="M499.927,48.841a43.17,43.17,0,0,1,15.45,2.683,33.853,33.853,0,0,1,12.16,7.834A35.8,35.8,0,0,1,535.5,71.994a47.708,47.708,0,0,1,2.857,17.094,30.96,30.96,0,0,1-.217,4.025,6.441,6.441,0,0,1-.779,2.51,3.156,3.156,0,0,1-1.514,1.3,6.452,6.452,0,0,1-2.423.39H478.548q.95,13.676,7.357,20.08T502.87,123.8a29.37,29.37,0,0,0,8.958-1.212,41.87,41.87,0,0,0,6.578-2.683q2.812-1.47,4.933-2.684a8.287,8.287,0,0,1,4.112-1.212,4.636,4.636,0,0,1,2.25.519A4.993,4.993,0,0,1,531.345,118l6.233,7.79a35.607,35.607,0,0,1-7.962,6.968,44.665,44.665,0,0,1-9.219,4.5,50.481,50.481,0,0,1-9.78,2.38,70.094,70.094,0,0,1-9.65.692,47.449,47.449,0,0,1-17.224-3.073,38.531,38.531,0,0,1-13.848-9.088,42.6,42.6,0,0,1-9.261-14.887,57.594,57.594,0,0,1-3.375-20.557A49.158,49.158,0,0,1,460.2,75.63a41.084,41.084,0,0,1,8.439-13.935A39.745,39.745,0,0,1,482.053,52.3,44.222,44.222,0,0,1,499.927,48.841Zm.432,15.321q-9.349,0-14.628,5.279t-6.751,14.974h40.161a26.71,26.71,0,0,0-1.125-7.833,18.07,18.07,0,0,0-3.462-6.448,16.4,16.4,0,0,0-5.886-4.372A20.06,20.06,0,0,0,500.36,64.162Z" transform="translate(-93.754 -10.014)" fill="none" stroke="#d847f7" stroke-width="2"/>
        <path id="Caminho_83" data-name="Caminho 83" d="M78.169,323.365q1.254,2.986,2.467,6.016,1.21-3.116,2.51-6.146t2.77-5.8l37.045-69.33a9.593,9.593,0,0,1,1.429-2.077,4.413,4.413,0,0,1,1.644-1.125,7.308,7.308,0,0,1,2.034-.432q1.123-.085,2.683-.087h17.57V369.542H127.807V288.7q0-2.249.13-4.934t.39-5.453L90.5,349.288a9.957,9.957,0,0,1-3.375,3.765,8.73,8.73,0,0,1-4.847,1.342h-3.2a8.729,8.729,0,0,1-4.847-1.342,9.964,9.964,0,0,1-3.375-3.765L32.511,278.054q.345,2.856.476,5.583t.13,5.063v80.841H12.6V244.385h17.57q1.559,0,2.683.087a7.314,7.314,0,0,1,2.034.432,4.818,4.818,0,0,1,1.688,1.125,8.752,8.752,0,0,1,1.471,2.077l37.391,69.5Q76.912,320.38,78.169,323.365Z" transform="translate(-2.584 -50.108)" fill="none" stroke="#d847f7" stroke-width="2"/>
        <path id="Caminho_84" data-name="Caminho 84" d="M239.2,254.033a12.191,12.191,0,0,1-1.125,5.193,14.114,14.114,0,0,1-7.357,7.14,13.394,13.394,0,0,1-5.367,1.082,12.871,12.871,0,0,1-5.236-1.082,13.849,13.849,0,0,1-4.284-2.9,14,14,0,0,1-2.9-4.241,12.575,12.575,0,0,1-1.082-5.193,13.408,13.408,0,0,1,1.082-5.367,13.728,13.728,0,0,1,2.9-4.328,13.876,13.876,0,0,1,4.284-2.9,12.9,12.9,0,0,1,5.236-1.082,13.421,13.421,0,0,1,5.367,1.082,14.308,14.308,0,0,1,4.371,2.9,13.981,13.981,0,0,1,2.986,4.328A12.993,12.993,0,0,1,239.2,254.033ZM236,368.716H214.618v-88.8H236Z" transform="translate(-43.437 -49.282)" fill="none" stroke="#d847f7" stroke-width="2"/>
        <path id="Caminho_85" data-name="Caminho 85" d="M272.6,378.561v-88.8h13.07a5.251,5.251,0,0,1,5.452,3.9l1.386,6.578a50.506,50.506,0,0,1,4.89-4.76,31.421,31.421,0,0,1,5.453-3.722,29.513,29.513,0,0,1,6.232-2.467,27.742,27.742,0,0,1,7.314-.909q8.394,0,13.805,4.544A27.37,27.37,0,0,1,338.3,304.99a27.116,27.116,0,0,1,5.193-7.574,28.407,28.407,0,0,1,6.837-5.149,31.444,31.444,0,0,1,7.919-2.943,38.015,38.015,0,0,1,8.439-.952,35.466,35.466,0,0,1,13.07,2.251,25.075,25.075,0,0,1,9.606,6.578,29,29,0,0,1,5.93,10.56,46.039,46.039,0,0,1,2.034,14.282v56.52H375.946v-56.52q0-8.482-3.722-12.766t-10.906-4.285a16.3,16.3,0,0,0-6.1,1.125,14.556,14.556,0,0,0-4.933,3.246,14.808,14.808,0,0,0-3.332,5.324,20.688,20.688,0,0,0-1.212,7.357v56.52H324.274v-56.52q0-8.914-3.592-12.983t-10.6-4.068a17.123,17.123,0,0,0-8.612,2.293,29.019,29.019,0,0,0-7.487,6.275v65Z" transform="translate(-55.893 -59.127)" fill="none" stroke="#d847f7" stroke-width="2"/>
      </g>
    </g>
    <g id="Grupo_7" data-name="Grupo 7" transform="translate(281 617)">
      <g id="Grupo_6-3" data-name="Grupo 6" clip-path="url(#clip-path-2)">
        <path id="Caminho_78-2" data-name="Caminho 78" d="M77.228,27.262a6.42,6.42,0,0,1-2.207,2.683,5.545,5.545,0,0,1-2.986.779,7.579,7.579,0,0,1-3.9-1.341q-2.164-1.341-5.107-2.987a41.851,41.851,0,0,0-6.88-2.986,28.951,28.951,0,0,0-9.3-1.342,27.343,27.343,0,0,0-8.439,1.169,17.867,17.867,0,0,0-6.059,3.246,12.97,12.97,0,0,0-3.678,4.977,16.328,16.328,0,0,0-1.212,6.361,11.056,11.056,0,0,0,2.467,7.357,20.564,20.564,0,0,0,6.535,5.02,60.547,60.547,0,0,0,9.261,3.722q5.193,1.646,10.6,3.506a102.223,102.223,0,0,1,10.6,4.328,36.741,36.741,0,0,1,9.261,6.232A28.251,28.251,0,0,1,82.724,77.2a32.008,32.008,0,0,1,2.467,13.243,43.155,43.155,0,0,1-2.9,15.883,36.651,36.651,0,0,1-8.482,12.9,39.927,39.927,0,0,1-13.633,8.656,50.2,50.2,0,0,1-18.435,3.159,59.434,59.434,0,0,1-11.772-1.169,61.88,61.88,0,0,1-11.122-3.332,57.913,57.913,0,0,1-9.954-5.193,48.893,48.893,0,0,1-8.266-6.752l6.751-11.165A8.607,8.607,0,0,1,9.673,101.4a5.594,5.594,0,0,1,2.986-.823,8.268,8.268,0,0,1,4.674,1.774q2.509,1.774,5.929,3.938a45.366,45.366,0,0,0,8.049,3.938A31.117,31.117,0,0,0,42.434,112q9.952,0,15.406-4.716t5.453-13.546a12.581,12.581,0,0,0-2.467-8.05,19.938,19.938,0,0,0-6.535-5.236,48.879,48.879,0,0,0-9.261-3.592q-5.193-1.471-10.559-3.2A90.914,90.914,0,0,1,23.911,69.5a34.167,34.167,0,0,1-9.261-6.318,28.741,28.741,0,0,1-6.535-9.738,37.1,37.1,0,0,1-2.467-14.41A34.443,34.443,0,0,1,16.337,14.192,39.342,39.342,0,0,1,29.19,6.143a46.8,46.8,0,0,1,17.4-3.03A58.4,58.4,0,0,1,67.015,6.576a46.123,46.123,0,0,1,15.926,9.693Z" transform="translate(-0.129 -0.638)" fill="#fff"/>
        <path id="Caminho_79-2" data-name="Caminho 79" d="M164.231,48.841a48.684,48.684,0,0,1,18.046,3.2,38.921,38.921,0,0,1,13.8,9.088A40.239,40.239,0,0,1,204.911,75.5a54.658,54.658,0,0,1,3.116,18.955,54.912,54.912,0,0,1-3.116,19.041,41.1,41.1,0,0,1-8.829,14.455,38.339,38.339,0,0,1-13.8,9.175,52.575,52.575,0,0,1-36.136,0,38.676,38.676,0,0,1-13.893-9.175,41.267,41.267,0,0,1-8.915-14.455,54.2,54.2,0,0,1-3.159-19.041A53.95,53.95,0,0,1,123.334,75.5a40.4,40.4,0,0,1,8.915-14.368,39.267,39.267,0,0,1,13.893-9.088A49.007,49.007,0,0,1,164.231,48.841Zm0,75.042q11.078,0,16.4-7.444t5.322-21.811q0-14.368-5.322-21.9t-16.4-7.531q-11.253,0-16.618,7.574t-5.367,21.855q0,14.281,5.367,21.768T164.231,123.883Z" transform="translate(-24.64 -10.014)" fill="#fff"/>
        <path id="Caminho_80-2" data-name="Caminho 80" d="M252.025,129.119V.5H273.4V51.22a42.122,42.122,0,0,1,11.944-8.958,34.436,34.436,0,0,1,15.58-3.332A28.8,28.8,0,0,1,324.6,50.615a41.718,41.718,0,0,1,6.751,14.108,70.982,70.982,0,0,1,2.381,19.3,60.868,60.868,0,0,1-2.684,18.436,45.137,45.137,0,0,1-7.66,14.714,35.393,35.393,0,0,1-12.031,9.738,35.017,35.017,0,0,1-15.8,3.5,31.514,31.514,0,0,1-7.443-.822,25.548,25.548,0,0,1-11.3-5.886,43.842,43.842,0,0,1-4.543-4.717l-.952,5.973a5.369,5.369,0,0,1-1.774,3.2,5.525,5.525,0,0,1-3.419.952Zm41.546-73.571a21.835,21.835,0,0,0-11.382,2.813,32.9,32.9,0,0,0-8.784,7.919V106.1a20.339,20.339,0,0,0,7.919,6.275,24.062,24.062,0,0,0,9.3,1.774,20.421,20.421,0,0,0,8.742-1.818,17.116,17.116,0,0,0,6.621-5.539,27.393,27.393,0,0,0,4.2-9.391,53.646,53.646,0,0,0,1.471-13.372,59.439,59.439,0,0,0-1.254-13.2,25.532,25.532,0,0,0-3.592-8.785,14.2,14.2,0,0,0-5.67-4.934A17.678,17.678,0,0,0,293.571,55.548Z" transform="translate(-51.674 -0.103)" fill="#fff"/>
        <path id="Caminho_81-2" data-name="Caminho 81" d="M375.816,138.964V50.16h12.551q3.288,0,4.586,1.212a6.98,6.98,0,0,1,1.731,4.155l1.3,10.732a42.174,42.174,0,0,1,11.166-12.983,23.493,23.493,0,0,1,14.368-4.761,18.578,18.578,0,0,1,10.905,3.03l-2.77,16.012a3.307,3.307,0,0,1-1.126,2.207,3.805,3.805,0,0,1-2.337.649,14.539,14.539,0,0,1-3.548-.606,23.8,23.8,0,0,0-5.972-.606,18.133,18.133,0,0,0-11.426,3.678A28.337,28.337,0,0,0,397.2,83.656v55.307Z" transform="translate(-77.056 -9.947)" fill="#fff"/>
        <path id="Caminho_82-2" data-name="Caminho 82" d="M499.927,48.841a43.17,43.17,0,0,1,15.45,2.683,33.853,33.853,0,0,1,12.16,7.834A35.8,35.8,0,0,1,535.5,71.994a47.708,47.708,0,0,1,2.857,17.094,30.96,30.96,0,0,1-.217,4.025,6.441,6.441,0,0,1-.779,2.51,3.156,3.156,0,0,1-1.514,1.3,6.452,6.452,0,0,1-2.423.39H478.548q.95,13.676,7.357,20.08T502.87,123.8a29.37,29.37,0,0,0,8.958-1.212,41.87,41.87,0,0,0,6.578-2.683q2.812-1.47,4.933-2.684a8.287,8.287,0,0,1,4.112-1.212,4.636,4.636,0,0,1,2.25.519A4.993,4.993,0,0,1,531.345,118l6.233,7.79a35.607,35.607,0,0,1-7.962,6.968,44.665,44.665,0,0,1-9.219,4.5,50.481,50.481,0,0,1-9.78,2.38,70.094,70.094,0,0,1-9.65.692,47.449,47.449,0,0,1-17.224-3.073,38.531,38.531,0,0,1-13.848-9.088,42.6,42.6,0,0,1-9.261-14.887,57.594,57.594,0,0,1-3.375-20.557A49.158,49.158,0,0,1,460.2,75.63a41.084,41.084,0,0,1,8.439-13.935A39.745,39.745,0,0,1,482.053,52.3,44.222,44.222,0,0,1,499.927,48.841Zm.432,15.321q-9.349,0-14.628,5.279t-6.751,14.974h40.161a26.71,26.71,0,0,0-1.125-7.833,18.07,18.07,0,0,0-3.462-6.448,16.4,16.4,0,0,0-5.886-4.372A20.06,20.06,0,0,0,500.36,64.162Z" transform="translate(-93.754 -10.014)" fill="#fff"/>
        <path id="Caminho_83-2" data-name="Caminho 83" d="M78.169,323.365q1.254,2.986,2.467,6.016,1.21-3.116,2.51-6.146t2.77-5.8l37.045-69.33a9.593,9.593,0,0,1,1.429-2.077,4.413,4.413,0,0,1,1.644-1.125,7.308,7.308,0,0,1,2.034-.432q1.123-.085,2.683-.087h17.57V369.542H127.807V288.7q0-2.249.13-4.934t.39-5.453L90.5,349.288a9.957,9.957,0,0,1-3.375,3.765,8.73,8.73,0,0,1-4.847,1.342h-3.2a8.729,8.729,0,0,1-4.847-1.342,9.964,9.964,0,0,1-3.375-3.765L32.511,278.054q.345,2.856.476,5.583t.13,5.063v80.841H12.6V244.385h17.57q1.559,0,2.683.087a7.314,7.314,0,0,1,2.034.432,4.818,4.818,0,0,1,1.688,1.125,8.752,8.752,0,0,1,1.471,2.077l37.391,69.5Q76.912,320.38,78.169,323.365Z" transform="translate(-2.584 -50.108)" fill="#fff"/>
        <path id="Caminho_84-2" data-name="Caminho 84" d="M239.2,254.033a12.191,12.191,0,0,1-1.125,5.193,14.114,14.114,0,0,1-7.357,7.14,13.394,13.394,0,0,1-5.367,1.082,12.871,12.871,0,0,1-5.236-1.082,13.849,13.849,0,0,1-4.284-2.9,14,14,0,0,1-2.9-4.241,12.575,12.575,0,0,1-1.082-5.193,13.408,13.408,0,0,1,1.082-5.367,13.728,13.728,0,0,1,2.9-4.328,13.876,13.876,0,0,1,4.284-2.9,12.9,12.9,0,0,1,5.236-1.082,13.421,13.421,0,0,1,5.367,1.082,14.308,14.308,0,0,1,4.371,2.9,13.981,13.981,0,0,1,2.986,4.328A12.993,12.993,0,0,1,239.2,254.033ZM236,368.716H214.618v-88.8H236Z" transform="translate(-43.437 -49.282)" fill="#fff"/>
        <path id="Caminho_85-2" data-name="Caminho 85" d="M272.6,378.561v-88.8h13.07a5.251,5.251,0,0,1,5.452,3.9l1.386,6.578a50.506,50.506,0,0,1,4.89-4.76,31.421,31.421,0,0,1,5.453-3.722,29.513,29.513,0,0,1,6.232-2.467,27.742,27.742,0,0,1,7.314-.909q8.394,0,13.805,4.544A27.37,27.37,0,0,1,338.3,304.99a27.116,27.116,0,0,1,5.193-7.574,28.407,28.407,0,0,1,6.837-5.149,31.444,31.444,0,0,1,7.919-2.943,38.015,38.015,0,0,1,8.439-.952,35.466,35.466,0,0,1,13.07,2.251,25.075,25.075,0,0,1,9.606,6.578,29,29,0,0,1,5.93,10.56,46.039,46.039,0,0,1,2.034,14.282v56.52H375.946v-56.52q0-8.482-3.722-12.766t-10.906-4.285a16.3,16.3,0,0,0-6.1,1.125,14.556,14.556,0,0,0-4.933,3.246,14.808,14.808,0,0,0-3.332,5.324,20.688,20.688,0,0,0-1.212,7.357v56.52H324.274v-56.52q0-8.914-3.592-12.983t-10.6-4.068a17.123,17.123,0,0,0-8.612,2.293,29.019,29.019,0,0,0-7.487,6.275v65Z" transform="translate(-55.893 -59.127)" fill="#fff"/>
      </g>
    </g>
  </g>
</svg>
