<svg xmlns="http://www.w3.org/2000/svg" width="259.708" height="42.795" viewBox="0 0 259.708 42.795">
  <g id="Grupo_28" data-name="Grupo 28" transform="translate(-1804.153 -410.427)">
    <path id="Caminho_78" data-name="Caminho 78" d="M24.029,10.454a1.954,1.954,0,0,1-.674.816,1.7,1.7,0,0,1-.912.237,2.323,2.323,0,0,1-1.19-.408q-.661-.408-1.56-.908a12.818,12.818,0,0,0-2.1-.908,8.885,8.885,0,0,0-2.842-.408,8.392,8.392,0,0,0-2.578.355,5.467,5.467,0,0,0-1.851.987A3.944,3.944,0,0,0,9.2,11.73a4.942,4.942,0,0,0-.37,1.934A3.35,3.35,0,0,0,9.578,15.9a6.278,6.278,0,0,0,2,1.526A18.55,18.55,0,0,0,14.4,18.558q1.586.5,3.239,1.066a31.317,31.317,0,0,1,3.239,1.316,11.228,11.228,0,0,1,2.829,1.894,8.589,8.589,0,0,1,2,2.8,9.688,9.688,0,0,1,.754,4.026,13.061,13.061,0,0,1-.886,4.828,11.137,11.137,0,0,1-2.591,3.92,12.205,12.205,0,0,1-4.165,2.631,15.4,15.4,0,0,1-5.632.96,18.244,18.244,0,0,1-3.6-.355,18.974,18.974,0,0,1-3.4-1.013,17.723,17.723,0,0,1-3.041-1.579A14.922,14.922,0,0,1,.628,37L2.69,33.608a2.625,2.625,0,0,1,.7-.618,1.715,1.715,0,0,1,.912-.25,2.533,2.533,0,0,1,1.428.539q.766.539,1.811,1.2A13.887,13.887,0,0,0,10,35.673a9.549,9.549,0,0,0,3.4.539,7,7,0,0,0,4.707-1.434,5.137,5.137,0,0,0,1.666-4.118,3.811,3.811,0,0,0-.754-2.447,6.086,6.086,0,0,0-2-1.592,14.977,14.977,0,0,0-2.829-1.092q-1.586-.447-3.226-.973a27.856,27.856,0,0,1-3.226-1.263,10.44,10.44,0,0,1-2.829-1.921,8.735,8.735,0,0,1-2-2.96,11.228,11.228,0,0,1-.754-4.381A10.446,10.446,0,0,1,5.427,6.481,12.027,12.027,0,0,1,9.354,4.034a14.359,14.359,0,0,1,5.315-.921,17.919,17.919,0,0,1,6.24,1.053,14.1,14.1,0,0,1,4.865,2.947Z" transform="translate(1806.579 410.721)" fill="none" stroke="#d847f7" stroke-width="1"/>
    <path id="Caminho_79" data-name="Caminho 79" d="M133.634,48.841a14.938,14.938,0,0,1,5.513.974,11.9,11.9,0,0,1,4.217,2.763,12.223,12.223,0,0,1,2.7,4.368,17.993,17.993,0,0,1,0,11.55,12.484,12.484,0,0,1-2.7,4.394,11.716,11.716,0,0,1-4.217,2.789,16.136,16.136,0,0,1-11.039,0,11.82,11.82,0,0,1-4.244-2.789A12.535,12.535,0,0,1,121.14,68.5a17.762,17.762,0,0,1,0-11.55,12.273,12.273,0,0,1,2.723-4.368,12,12,0,0,1,4.244-2.763A15.037,15.037,0,0,1,133.634,48.841Zm0,22.812a5.755,5.755,0,0,0,5.011-2.263q1.626-2.262,1.626-6.63T138.645,56.1a5.73,5.73,0,0,0-5.011-2.289,5.808,5.808,0,0,0-5.077,2.3q-1.64,2.3-1.64,6.644t1.64,6.617A5.833,5.833,0,0,0,133.634,71.653Z" transform="translate(1716.065 376.044)" fill="none" stroke="#d847f7" stroke-width="1"/>
    <path id="Caminho_80" data-name="Caminho 80" d="M252.025,39.6V.5h6.531V15.918a12.863,12.863,0,0,1,3.649-2.723,10.564,10.564,0,0,1,4.76-1.013,8.813,8.813,0,0,1,7.232,3.552,12.655,12.655,0,0,1,2.062,4.289,21.477,21.477,0,0,1,.727,5.867,18.419,18.419,0,0,1-.82,5.6,13.7,13.7,0,0,1-2.34,4.473,10.579,10.579,0,0,1-8.5,4.026,9.673,9.673,0,0,1-2.274-.25,7.818,7.818,0,0,1-3.451-1.789,13.354,13.354,0,0,1-1.388-1.434l-.291,1.816a1.63,1.63,0,0,1-.542.973,1.694,1.694,0,0,1-1.045.29Zm12.692-22.365a6.7,6.7,0,0,0-3.477.855,10.034,10.034,0,0,0-2.684,2.407V32.6a6.209,6.209,0,0,0,2.419,1.908,7.383,7.383,0,0,0,2.842.539,6.265,6.265,0,0,0,2.671-.553,5.223,5.223,0,0,0,2.023-1.684,8.307,8.307,0,0,0,1.282-2.855,16.231,16.231,0,0,0,.45-4.065,17.984,17.984,0,0,0-.383-4.013,7.74,7.74,0,0,0-1.1-2.671,4.33,4.33,0,0,0-1.732-1.5A5.423,5.423,0,0,0,264.717,17.234Z" transform="translate(1616.236 412.703)" fill="none" stroke="#d847f7" stroke-width="1"/>
    <path id="Caminho_81" data-name="Caminho 81" d="M375.816,76.01v-27h3.834a2.062,2.062,0,0,1,1.4.368,2.117,2.117,0,0,1,.529,1.263l.4,3.262a12.838,12.838,0,0,1,3.411-3.947,7.2,7.2,0,0,1,4.389-1.447,5.7,5.7,0,0,1,3.332.921l-.846,4.868a1,1,0,0,1-.344.671,1.167,1.167,0,0,1-.714.2,4.462,4.462,0,0,1-1.084-.184A7.306,7.306,0,0,0,388.3,54.8a5.558,5.558,0,0,0-3.491,1.118,8.618,8.618,0,0,0-2.459,3.276V76.01Z" transform="translate(1522.508 376.291)" fill="none" stroke="#d847f7" stroke-width="1"/>
    <path id="Caminho_82" data-name="Caminho 82" d="M470.292,48.841a13.247,13.247,0,0,1,4.72.816,10.348,10.348,0,0,1,3.715,2.381,10.874,10.874,0,0,1,2.432,3.841,14.439,14.439,0,0,1,.873,5.2,9.364,9.364,0,0,1-.066,1.224,1.951,1.951,0,0,1-.238.763.963.963,0,0,1-.463.395,1.98,1.98,0,0,1-.74.118H463.761q.29,4.157,2.247,6.1a7.024,7.024,0,0,0,5.183,1.947,9.014,9.014,0,0,0,2.737-.368,12.825,12.825,0,0,0,2.009-.816q.859-.447,1.507-.816a2.541,2.541,0,0,1,1.256-.368,1.422,1.422,0,0,1,.687.158,1.523,1.523,0,0,1,.5.447l1.9,2.368a10.861,10.861,0,0,1-2.432,2.118,13.673,13.673,0,0,1-2.816,1.368,15.485,15.485,0,0,1-2.988.724,21.516,21.516,0,0,1-2.948.21,14.56,14.56,0,0,1-5.262-.934,11.776,11.776,0,0,1-4.231-2.763,12.941,12.941,0,0,1-2.829-4.526,17.429,17.429,0,0,1-1.031-6.249,14.877,14.877,0,0,1,.9-5.2,12.478,12.478,0,0,1,2.578-4.236,12.142,12.142,0,0,1,4.1-2.855A13.568,13.568,0,0,1,470.292,48.841Zm.132,4.657a6.058,6.058,0,0,0-4.469,1.6,7.9,7.9,0,0,0-2.062,4.552h12.269a8.082,8.082,0,0,0-.344-2.381,5.484,5.484,0,0,0-1.058-1.96,5.01,5.01,0,0,0-1.8-1.329A6.155,6.155,0,0,0,470.424,53.5Z" transform="translate(1460.847 376.044)" fill="none" stroke="#d847f7" stroke-width="1"/>
    <path id="Caminho_83" data-name="Caminho 83" d="M32.634,268.394q.383.908.754,1.829.37-.947.767-1.868T35,266.592l11.317-21.075a2.917,2.917,0,0,1,.436-.631,1.348,1.348,0,0,1,.5-.342,2.243,2.243,0,0,1,.621-.131q.343-.026.82-.026h5.368v38.046H47.8V257.856q0-.684.04-1.5t.119-1.658L36.4,276.274a3.032,3.032,0,0,1-1.031,1.144,2.677,2.677,0,0,1-1.481.408h-.978a2.676,2.676,0,0,1-1.481-.408,3.034,3.034,0,0,1-1.031-1.144L18.686,254.62q.105.868.145,1.7t.04,1.539v24.575H12.6V244.385h5.368q.476,0,.82.026a2.245,2.245,0,0,1,.621.131,1.473,1.473,0,0,1,.516.342,2.661,2.661,0,0,1,.45.631L31.8,266.644Q32.25,267.487,32.634,268.394Z" transform="translate(1949.512 170.265)" fill="none" stroke="#d847f7" stroke-width="1"/>
    <path id="Caminho_84" data-name="Caminho 84" d="M220.2,244.514a3.69,3.69,0,0,1-.344,1.579,4.3,4.3,0,0,1-2.247,2.171,4.109,4.109,0,0,1-1.64.329,3.949,3.949,0,0,1-1.6-.329,4.2,4.2,0,0,1-2.195-2.171,3.807,3.807,0,0,1-.331-1.579,4.059,4.059,0,0,1,.331-1.631,4.172,4.172,0,0,1,.886-1.316,4.24,4.24,0,0,1,1.309-.881,3.957,3.957,0,0,1,1.6-.329,4.118,4.118,0,0,1,1.64.329,4.372,4.372,0,0,1,1.335.881,4.249,4.249,0,0,1,.912,1.316A3.933,3.933,0,0,1,220.2,244.514Zm-.978,34.862h-6.531v-27h6.531Z" transform="translate(1798.656 173.319)" fill="none" stroke="#d847f7" stroke-width="1"/>
    <path id="Caminho_85" data-name="Caminho 85" d="M272.6,315.788v-27h3.993a1.6,1.6,0,0,1,1.666,1.184l.423,2a15.393,15.393,0,0,1,1.494-1.447,9.6,9.6,0,0,1,1.666-1.131,9.043,9.043,0,0,1,1.9-.75,8.515,8.515,0,0,1,2.234-.276,6.354,6.354,0,0,1,4.217,1.381,8.318,8.318,0,0,1,2.472,3.67,8.242,8.242,0,0,1,1.587-2.3,8.674,8.674,0,0,1,2.089-1.565,9.636,9.636,0,0,1,2.419-.895,11.668,11.668,0,0,1,2.578-.29,10.883,10.883,0,0,1,3.993.684,7.662,7.662,0,0,1,2.935,2,8.8,8.8,0,0,1,1.811,3.21,13.931,13.931,0,0,1,.621,4.341v17.181h-6.531V298.607a5.756,5.756,0,0,0-1.137-3.881,4.185,4.185,0,0,0-3.332-1.3,5,5,0,0,0-1.864.342,4.449,4.449,0,0,0-1.507.987,4.5,4.5,0,0,0-1.018,1.618,6.261,6.261,0,0,0-.37,2.236v17.181h-6.558V298.607a5.862,5.862,0,0,0-1.1-3.947,4.105,4.105,0,0,0-3.239-1.237,5.251,5.251,0,0,0-2.631.7,8.854,8.854,0,0,0-2.287,1.908v19.76Z" transform="translate(1752.657 136.907)" fill="none" stroke="#d847f7" stroke-width="1"/>
    <path id="Caminho_78-2" data-name="Caminho 78" d="M24.029,10.454a1.954,1.954,0,0,1-.674.816,1.7,1.7,0,0,1-.912.237,2.323,2.323,0,0,1-1.19-.408q-.661-.408-1.56-.908a12.818,12.818,0,0,0-2.1-.908,8.885,8.885,0,0,0-2.842-.408,8.392,8.392,0,0,0-2.578.355,5.467,5.467,0,0,0-1.851.987A3.944,3.944,0,0,0,9.2,11.73a4.942,4.942,0,0,0-.37,1.934A3.35,3.35,0,0,0,9.578,15.9a6.278,6.278,0,0,0,2,1.526A18.55,18.55,0,0,0,14.4,18.558q1.586.5,3.239,1.066a31.317,31.317,0,0,1,3.239,1.316,11.228,11.228,0,0,1,2.829,1.894,8.589,8.589,0,0,1,2,2.8,9.688,9.688,0,0,1,.754,4.026,13.061,13.061,0,0,1-.886,4.828,11.137,11.137,0,0,1-2.591,3.92,12.205,12.205,0,0,1-4.165,2.631,15.4,15.4,0,0,1-5.632.96,18.244,18.244,0,0,1-3.6-.355,18.974,18.974,0,0,1-3.4-1.013,17.723,17.723,0,0,1-3.041-1.579A14.922,14.922,0,0,1,.628,37L2.69,33.608a2.625,2.625,0,0,1,.7-.618,1.715,1.715,0,0,1,.912-.25,2.533,2.533,0,0,1,1.428.539q.766.539,1.811,1.2A13.887,13.887,0,0,0,10,35.673a9.549,9.549,0,0,0,3.4.539,7,7,0,0,0,4.707-1.434,5.137,5.137,0,0,0,1.666-4.118,3.811,3.811,0,0,0-.754-2.447,6.086,6.086,0,0,0-2-1.592,14.977,14.977,0,0,0-2.829-1.092q-1.586-.447-3.226-.973a27.856,27.856,0,0,1-3.226-1.263,10.44,10.44,0,0,1-2.829-1.921,8.735,8.735,0,0,1-2-2.96,11.228,11.228,0,0,1-.754-4.381A10.446,10.446,0,0,1,5.427,6.481,12.027,12.027,0,0,1,9.354,4.034a14.359,14.359,0,0,1,5.315-.921,17.919,17.919,0,0,1,6.24,1.053,14.1,14.1,0,0,1,4.865,2.947Z" transform="translate(1803.525 407.946)" fill="#fff"/>
    <path id="Caminho_79-2" data-name="Caminho 79" d="M133.634,48.841a14.938,14.938,0,0,1,5.513.974,11.9,11.9,0,0,1,4.217,2.763,12.223,12.223,0,0,1,2.7,4.368,17.993,17.993,0,0,1,0,11.55,12.484,12.484,0,0,1-2.7,4.394,11.716,11.716,0,0,1-4.217,2.789,16.136,16.136,0,0,1-11.039,0,11.82,11.82,0,0,1-4.244-2.789A12.535,12.535,0,0,1,121.14,68.5a17.762,17.762,0,0,1,0-11.55,12.273,12.273,0,0,1,2.723-4.368,12,12,0,0,1,4.244-2.763A15.037,15.037,0,0,1,133.634,48.841Zm0,22.812a5.755,5.755,0,0,0,5.011-2.263q1.626-2.262,1.626-6.63T138.645,56.1a5.73,5.73,0,0,0-5.011-2.289,5.808,5.808,0,0,0-5.077,2.3q-1.64,2.3-1.64,6.644t1.64,6.617A5.833,5.833,0,0,0,133.634,71.653Z" transform="translate(1713.01 373.268)" fill="#fff"/>
    <path id="Caminho_80-2" data-name="Caminho 80" d="M252.025,39.6V.5h6.531V15.918a12.863,12.863,0,0,1,3.649-2.723,10.564,10.564,0,0,1,4.76-1.013,8.813,8.813,0,0,1,7.232,3.552,12.655,12.655,0,0,1,2.062,4.289,21.477,21.477,0,0,1,.727,5.867,18.419,18.419,0,0,1-.82,5.6,13.7,13.7,0,0,1-2.34,4.473,10.579,10.579,0,0,1-8.5,4.026,9.673,9.673,0,0,1-2.274-.25,7.818,7.818,0,0,1-3.451-1.789,13.354,13.354,0,0,1-1.388-1.434l-.291,1.816a1.63,1.63,0,0,1-.542.973,1.694,1.694,0,0,1-1.045.29Zm12.692-22.365a6.7,6.7,0,0,0-3.477.855,10.034,10.034,0,0,0-2.684,2.407V32.6a6.209,6.209,0,0,0,2.419,1.908,7.383,7.383,0,0,0,2.842.539,6.265,6.265,0,0,0,2.671-.553,5.223,5.223,0,0,0,2.023-1.684,8.307,8.307,0,0,0,1.282-2.855,16.231,16.231,0,0,0,.45-4.065,17.984,17.984,0,0,0-.383-4.013,7.74,7.74,0,0,0-1.1-2.671,4.33,4.33,0,0,0-1.732-1.5A5.423,5.423,0,0,0,264.717,17.234Z" transform="translate(1613.181 409.927)" fill="#fff"/>
    <path id="Caminho_81-2" data-name="Caminho 81" d="M375.816,76.01v-27h3.834a2.062,2.062,0,0,1,1.4.368,2.117,2.117,0,0,1,.529,1.263l.4,3.262a12.838,12.838,0,0,1,3.411-3.947,7.2,7.2,0,0,1,4.389-1.447,5.7,5.7,0,0,1,3.332.921l-.846,4.868a1,1,0,0,1-.344.671,1.167,1.167,0,0,1-.714.2,4.462,4.462,0,0,1-1.084-.184A7.306,7.306,0,0,0,388.3,54.8a5.558,5.558,0,0,0-3.491,1.118,8.618,8.618,0,0,0-2.459,3.276V76.01Z" transform="translate(1519.453 373.516)" fill="#fff"/>
    <path id="Caminho_82-2" data-name="Caminho 82" d="M470.292,48.841a13.247,13.247,0,0,1,4.72.816,10.348,10.348,0,0,1,3.715,2.381,10.874,10.874,0,0,1,2.432,3.841,14.439,14.439,0,0,1,.873,5.2,9.364,9.364,0,0,1-.066,1.224,1.951,1.951,0,0,1-.238.763.963.963,0,0,1-.463.395,1.98,1.98,0,0,1-.74.118H463.761q.29,4.157,2.247,6.1a7.024,7.024,0,0,0,5.183,1.947,9.014,9.014,0,0,0,2.737-.368,12.825,12.825,0,0,0,2.009-.816q.859-.447,1.507-.816a2.541,2.541,0,0,1,1.256-.368,1.422,1.422,0,0,1,.687.158,1.523,1.523,0,0,1,.5.447l1.9,2.368a10.861,10.861,0,0,1-2.432,2.118,13.673,13.673,0,0,1-2.816,1.368,15.485,15.485,0,0,1-2.988.724,21.516,21.516,0,0,1-2.948.21,14.56,14.56,0,0,1-5.262-.934,11.776,11.776,0,0,1-4.231-2.763,12.941,12.941,0,0,1-2.829-4.526,17.429,17.429,0,0,1-1.031-6.249,14.877,14.877,0,0,1,.9-5.2,12.478,12.478,0,0,1,2.578-4.236,12.142,12.142,0,0,1,4.1-2.855A13.568,13.568,0,0,1,470.292,48.841Zm.132,4.657a6.058,6.058,0,0,0-4.469,1.6,7.9,7.9,0,0,0-2.062,4.552h12.269a8.082,8.082,0,0,0-.344-2.381,5.484,5.484,0,0,0-1.058-1.96,5.01,5.01,0,0,0-1.8-1.329A6.155,6.155,0,0,0,470.424,53.5Z" transform="translate(1457.792 373.268)" fill="#fff"/>
    <path id="Caminho_83-2" data-name="Caminho 83" d="M32.634,268.394q.383.908.754,1.829.37-.947.767-1.868T35,266.592l11.317-21.075a2.917,2.917,0,0,1,.436-.631,1.348,1.348,0,0,1,.5-.342,2.243,2.243,0,0,1,.621-.131q.343-.026.82-.026h5.368v38.046H47.8V257.856q0-.684.04-1.5t.119-1.658L36.4,276.274a3.032,3.032,0,0,1-1.031,1.144,2.677,2.677,0,0,1-1.481.408h-.978a2.676,2.676,0,0,1-1.481-.408,3.034,3.034,0,0,1-1.031-1.144L18.686,254.62q.105.868.145,1.7t.04,1.539v24.575H12.6V244.385h5.368q.476,0,.82.026a2.245,2.245,0,0,1,.621.131,1.473,1.473,0,0,1,.516.342,2.661,2.661,0,0,1,.45.631L31.8,266.644Q32.25,267.487,32.634,268.394Z" transform="translate(1946.457 167.489)" fill="#fff"/>
    <path id="Caminho_84-2" data-name="Caminho 84" d="M220.2,244.514a3.69,3.69,0,0,1-.344,1.579,4.3,4.3,0,0,1-2.247,2.171,4.109,4.109,0,0,1-1.64.329,3.949,3.949,0,0,1-1.6-.329,4.2,4.2,0,0,1-2.195-2.171,3.807,3.807,0,0,1-.331-1.579,4.059,4.059,0,0,1,.331-1.631,4.172,4.172,0,0,1,.886-1.316,4.24,4.24,0,0,1,1.309-.881,3.957,3.957,0,0,1,1.6-.329,4.118,4.118,0,0,1,1.64.329,4.372,4.372,0,0,1,1.335.881,4.249,4.249,0,0,1,.912,1.316A3.933,3.933,0,0,1,220.2,244.514Zm-.978,34.862h-6.531v-27h6.531Z" transform="translate(1795.601 170.544)" fill="#fff"/>
    <path id="Caminho_85-2" data-name="Caminho 85" d="M272.6,315.788v-27h3.993a1.6,1.6,0,0,1,1.666,1.184l.423,2a15.393,15.393,0,0,1,1.494-1.447,9.6,9.6,0,0,1,1.666-1.131,9.043,9.043,0,0,1,1.9-.75,8.515,8.515,0,0,1,2.234-.276,6.354,6.354,0,0,1,4.217,1.381,8.318,8.318,0,0,1,2.472,3.67,8.242,8.242,0,0,1,1.587-2.3,8.674,8.674,0,0,1,2.089-1.565,9.636,9.636,0,0,1,2.419-.895,11.668,11.668,0,0,1,2.578-.29,10.883,10.883,0,0,1,3.993.684,7.662,7.662,0,0,1,2.935,2,8.8,8.8,0,0,1,1.811,3.21,13.931,13.931,0,0,1,.621,4.341v17.181h-6.531V298.607a5.756,5.756,0,0,0-1.137-3.881,4.185,4.185,0,0,0-3.332-1.3,5,5,0,0,0-1.864.342,4.449,4.449,0,0,0-1.507.987,4.5,4.5,0,0,0-1.018,1.618,6.261,6.261,0,0,0-.37,2.236v17.181h-6.558V298.607a5.862,5.862,0,0,0-1.1-3.947,4.105,4.105,0,0,0-3.239-1.237,5.251,5.251,0,0,0-2.631.7,8.854,8.854,0,0,0-2.287,1.908v19.76Z" transform="translate(1749.602 134.132)" fill="#fff"/>
  </g>
</svg>
